<?xml version="1.0" encoding="utf-8"?>
<!DOCTYPE svg PUBLIC "-//W3C//DTD SVG 1.1//EN" "http://www.w3.org/Graphics/SVG/1.1/DTD/svg11.dtd">
<svg version="1.1" xmlns="http://www.w3.org/2000/svg"
width="75px"
height="75px"
><g transform="matrix(1.0699001 0 0 1.0273973 -5.2425107 -4.2123289)">
<path fill="none" stroke="#000" stroke-width="1.5" d="M42,42.8 c14.8,1.1,23.2,17.5,22.5,34.3"/>
<path fill="none" stroke="#000" stroke-width="1.5" d="M37.7,42.8 c-14.8,1.1-23.2,17.5-22.5,31"/>
<path fill="none" stroke="#000" stroke-width="1.5" d="M37.9,38.4 C23,37.3,14.6,20.8,15.3,4.1"/>
<path fill="none" stroke="#000" stroke-width="1.5" d="M41.7,38.4 c15.1-0.8,23.7-17.4,23-31"/>
<polygon points="75,42 11.7,42 4.9,42 11.7,44.8 11.7,43.5 75,43.5 75,42"/>
<polygon points="68.2,36.4 68.2,37.6 4.9,37.6 4.9,39.2 68.2,39.2 75,39.2 68.2,36.4"/>
<polygon points="17.5,69.1 13,69.1 15.3,77.1 17.5,69.1"/>
<polygon points="64.6,4.1 62.3,12 66.8,12 64.6,4.1"/>
</g></svg>
